<svg width="1363" height="173" viewBox="0 0 1363 173" fill="none" xmlns="http://www.w3.org/2000/svg">
<mask id="path-1-inside-1_1166_1467" fill="white">
<path d="M0 10C0 4.47715 4.47715 0 10 0H1353C1358.52 0 1363 4.47715 1363 10V163C1363 168.523 1358.52 173 1353 173H9.99997C4.47712 173 0 168.523 0 163V10Z"/>
</mask>
<path d="M0 10C0 4.47715 4.47715 0 10 0H1353C1358.52 0 1363 4.47715 1363 10V163C1363 168.523 1358.52 173 1353 173H9.99997C4.47712 173 0 168.523 0 163V10Z" fill="#FFFBEF"/>
<path d="M0 0H1363H0ZM1363 173H0H1363ZM10 173C-15.9574 173 -37 151.957 -37 126V47C-37 21.0426 -15.9574 0 10 0H37C37 0 37 4.47715 37 10V163C37 168.523 37 173 37 173H10ZM1456.5 0C1504.27 0 1543 38.7274 1543 86.5C1543 134.273 1504.27 173 1456.5 173H1183C1183 173 1183 168.523 1183 163V10C1183 4.47715 1183 0 1183 0H1456.5Z" fill="#FCD95B" mask="url(#path-1-inside-1_1166_1467)"/>
<path d="M99.2121 142.36C97.5321 142.36 96.0201 142.156 94.6761 141.748C93.3321 141.316 92.0481 140.572 90.8241 139.516C90.5121 139.252 90.2721 138.952 90.1041 138.616C89.9361 138.28 89.8521 137.944 89.8521 137.608C89.8521 137.056 90.0441 136.576 90.4281 136.168C90.8361 135.736 91.3401 135.52 91.9401 135.52C92.3961 135.52 92.8041 135.664 93.1641 135.952C94.0761 136.696 94.9761 137.26 95.8641 137.644C96.7761 138.028 97.8921 138.22 99.2121 138.22C100.1 138.22 100.916 138.088 101.66 137.824C102.404 137.536 103.004 137.164 103.46 136.708C103.916 136.228 104.144 135.688 104.144 135.088C104.144 134.368 103.928 133.756 103.496 133.252C103.064 132.748 102.404 132.328 101.516 131.992C100.628 131.632 99.5001 131.356 98.1321 131.164C96.8361 130.972 95.6961 130.684 94.7121 130.3C93.7281 129.892 92.9001 129.388 92.2281 128.788C91.5801 128.164 91.0881 127.444 90.7521 126.628C90.4161 125.788 90.2481 124.852 90.2481 123.82C90.2481 122.26 90.6441 120.928 91.4361 119.824C92.2521 118.72 93.3441 117.88 94.7121 117.304C96.0801 116.728 97.5921 116.44 99.2481 116.44C100.808 116.44 102.248 116.68 103.568 117.16C104.912 117.616 106.004 118.204 106.844 118.924C107.54 119.476 107.888 120.112 107.888 120.832C107.888 121.36 107.684 121.84 107.276 122.272C106.868 122.704 106.388 122.92 105.836 122.92C105.476 122.92 105.152 122.812 104.864 122.596C104.48 122.26 103.964 121.948 103.316 121.66C102.668 121.348 101.984 121.096 101.264 120.904C100.544 120.688 99.8721 120.58 99.2481 120.58C98.2161 120.58 97.3401 120.712 96.6201 120.976C95.9241 121.24 95.3961 121.6 95.0361 122.056C94.6761 122.512 94.4961 123.04 94.4961 123.64C94.4961 124.36 94.7001 124.96 95.1081 125.44C95.5401 125.896 96.1521 126.268 96.9441 126.556C97.7361 126.82 98.6841 127.06 99.7881 127.276C101.228 127.54 102.488 127.852 103.568 128.212C104.672 128.572 105.584 129.04 106.304 129.616C107.024 130.168 107.564 130.876 107.924 131.74C108.284 132.58 108.464 133.612 108.464 134.836C108.464 136.396 108.032 137.74 107.168 138.868C106.304 139.996 105.164 140.86 103.748 141.46C102.356 142.06 100.844 142.36 99.2121 142.36ZM126.525 122.74C127.149 122.74 127.665 122.956 128.073 123.388C128.481 123.796 128.685 124.312 128.685 124.936V140.236C128.685 142.444 128.265 144.196 127.425 145.492C126.609 146.812 125.505 147.76 124.113 148.336C122.721 148.912 121.161 149.2 119.433 149.2C118.665 149.2 117.849 149.14 116.985 149.02C116.121 148.9 115.413 148.72 114.861 148.48C114.141 148.168 113.637 147.772 113.349 147.292C113.085 146.836 113.037 146.344 113.205 145.816C113.421 145.12 113.769 144.64 114.249 144.376C114.729 144.136 115.233 144.112 115.761 144.304C116.145 144.424 116.649 144.604 117.273 144.844C117.897 145.108 118.617 145.24 119.433 145.24C120.537 145.24 121.449 145.084 122.169 144.772C122.913 144.484 123.465 143.98 123.825 143.26C124.209 142.564 124.401 141.604 124.401 140.38V137.968L125.157 138.832C124.749 139.624 124.233 140.284 123.609 140.812C123.009 141.316 122.289 141.7 121.449 141.964C120.609 142.228 119.649 142.36 118.569 142.36C117.297 142.36 116.181 142.072 115.221 141.496C114.285 140.896 113.553 140.08 113.025 139.048C112.497 137.992 112.233 136.792 112.233 135.448V124.936C112.233 124.312 112.437 123.796 112.845 123.388C113.253 122.956 113.769 122.74 114.393 122.74C115.017 122.74 115.533 122.956 115.941 123.388C116.349 123.796 116.553 124.312 116.553 124.936V134.152C116.553 135.712 116.889 136.816 117.561 137.464C118.257 138.088 119.217 138.4 120.441 138.4C121.281 138.4 121.989 138.244 122.565 137.932C123.141 137.596 123.585 137.116 123.897 136.492C124.209 135.844 124.365 135.064 124.365 134.152V124.936C124.365 124.312 124.569 123.796 124.977 123.388C125.385 122.956 125.901 122.74 126.525 122.74ZM131.894 139.012C131.654 138.676 131.546 138.244 131.57 137.716C131.594 137.188 131.906 136.732 132.506 136.348C132.89 136.108 133.298 136.012 133.73 136.06C134.162 136.084 134.582 136.3 134.99 136.708C135.686 137.404 136.418 137.944 137.186 138.328C137.954 138.712 138.914 138.904 140.066 138.904C140.426 138.88 140.822 138.832 141.254 138.76C141.686 138.664 142.058 138.472 142.37 138.184C142.706 137.872 142.874 137.404 142.874 136.78C142.874 136.252 142.694 135.832 142.334 135.52C141.974 135.208 141.494 134.944 140.894 134.728C140.318 134.512 139.67 134.308 138.95 134.116C138.206 133.9 137.438 133.66 136.646 133.396C135.878 133.132 135.17 132.796 134.522 132.388C133.874 131.956 133.346 131.392 132.938 130.696C132.53 130 132.326 129.124 132.326 128.068C132.326 126.868 132.662 125.848 133.334 125.008C134.006 124.168 134.87 123.52 135.926 123.064C137.006 122.608 138.134 122.38 139.31 122.38C140.054 122.38 140.834 122.476 141.65 122.668C142.466 122.836 143.246 123.124 143.99 123.532C144.734 123.916 145.358 124.432 145.862 125.08C146.126 125.44 146.282 125.872 146.33 126.376C146.378 126.88 146.15 127.336 145.646 127.744C145.286 128.032 144.866 128.164 144.386 128.14C143.906 128.092 143.51 127.924 143.198 127.636C142.79 127.108 142.238 126.688 141.542 126.376C140.87 126.064 140.09 125.908 139.202 125.908C138.842 125.908 138.446 125.956 138.014 126.052C137.606 126.124 137.246 126.304 136.934 126.592C136.622 126.856 136.466 127.288 136.466 127.888C136.466 128.44 136.646 128.884 137.006 129.22C137.366 129.532 137.846 129.796 138.446 130.012C139.07 130.204 139.73 130.396 140.426 130.588C141.146 130.78 141.878 131.008 142.622 131.272C143.366 131.536 144.05 131.884 144.674 132.316C145.298 132.748 145.802 133.312 146.186 134.008C146.57 134.68 146.762 135.544 146.762 136.6C146.762 137.824 146.402 138.868 145.682 139.732C144.962 140.596 144.062 141.256 142.982 141.712C141.902 142.144 140.798 142.36 139.67 142.36C138.254 142.36 136.838 142.12 135.422 141.64C134.006 141.136 132.83 140.26 131.894 139.012ZM150.593 123.1H159.125C159.701 123.1 160.181 123.292 160.565 123.676C160.949 124.06 161.141 124.54 161.141 125.116C161.141 125.668 160.949 126.136 160.565 126.52C160.181 126.88 159.701 127.06 159.125 127.06H150.593C150.017 127.06 149.537 126.868 149.153 126.484C148.769 126.1 148.577 125.62 148.577 125.044C148.577 124.492 148.769 124.036 149.153 123.676C149.537 123.292 150.017 123.1 150.593 123.1ZM154.445 118.6C155.069 118.6 155.573 118.816 155.957 119.248C156.365 119.656 156.569 120.172 156.569 120.796V136.816C156.569 137.152 156.629 137.428 156.749 137.644C156.893 137.86 157.073 138.016 157.289 138.112C157.529 138.208 157.781 138.256 158.045 138.256C158.333 138.256 158.597 138.208 158.837 138.112C159.077 137.992 159.353 137.932 159.665 137.932C160.001 137.932 160.301 138.088 160.565 138.4C160.853 138.712 160.997 139.144 160.997 139.696C160.997 140.368 160.625 140.92 159.881 141.352C159.161 141.784 158.381 142 157.541 142C157.037 142 156.473 141.964 155.849 141.892C155.249 141.796 154.673 141.592 154.121 141.28C153.593 140.944 153.149 140.44 152.789 139.768C152.429 139.096 152.249 138.172 152.249 136.996V120.796C152.249 120.172 152.453 119.656 152.861 119.248C153.293 118.816 153.821 118.6 154.445 118.6ZM174.004 142.36C171.964 142.36 170.188 141.94 168.676 141.1C167.188 140.236 166.036 139.072 165.22 137.608C164.428 136.144 164.032 134.488 164.032 132.64C164.032 130.48 164.464 128.644 165.328 127.132C166.216 125.596 167.368 124.42 168.784 123.604C170.2 122.788 171.7 122.38 173.284 122.38C174.508 122.38 175.66 122.632 176.74 123.136C177.844 123.64 178.816 124.336 179.656 125.224C180.496 126.088 181.156 127.096 181.636 128.248C182.14 129.4 182.392 130.624 182.392 131.92C182.368 132.496 182.14 132.964 181.708 133.324C181.276 133.684 180.772 133.864 180.196 133.864H166.444L165.364 130.264H178.576L177.784 130.984V130.012C177.736 129.316 177.484 128.692 177.028 128.14C176.596 127.588 176.044 127.156 175.372 126.844C174.724 126.508 174.028 126.34 173.284 126.34C172.564 126.34 171.892 126.436 171.268 126.628C170.644 126.82 170.104 127.144 169.648 127.6C169.192 128.056 168.832 128.668 168.568 129.436C168.304 130.204 168.172 131.176 168.172 132.352C168.172 133.648 168.436 134.752 168.964 135.664C169.516 136.552 170.212 137.236 171.052 137.716C171.916 138.172 172.828 138.4 173.788 138.4C174.676 138.4 175.384 138.328 175.912 138.184C176.44 138.04 176.86 137.872 177.172 137.68C177.508 137.464 177.808 137.284 178.072 137.14C178.504 136.924 178.912 136.816 179.296 136.816C179.824 136.816 180.256 136.996 180.592 137.356C180.952 137.716 181.132 138.136 181.132 138.616C181.132 139.264 180.796 139.852 180.124 140.38C179.5 140.908 178.624 141.376 177.496 141.784C176.368 142.168 175.204 142.36 174.004 142.36ZM196.282 122.38C198.202 122.38 199.618 122.848 200.53 123.784C201.442 124.696 202.042 125.884 202.33 127.348L201.718 127.024L202.006 126.448C202.294 125.896 202.738 125.308 203.338 124.684C203.938 124.036 204.658 123.496 205.498 123.064C206.362 122.608 207.322 122.38 208.378 122.38C210.106 122.38 211.414 122.752 212.302 123.496C213.214 124.24 213.838 125.236 214.174 126.484C214.51 127.708 214.678 129.076 214.678 130.588V139.804C214.678 140.428 214.474 140.956 214.066 141.388C213.658 141.796 213.142 142 212.518 142C211.894 142 211.378 141.796 210.97 141.388C210.562 140.956 210.358 140.428 210.358 139.804V130.588C210.358 129.796 210.262 129.088 210.07 128.464C209.878 127.816 209.53 127.3 209.026 126.916C208.522 126.532 207.802 126.34 206.866 126.34C205.954 126.34 205.174 126.532 204.526 126.916C203.878 127.3 203.386 127.816 203.05 128.464C202.738 129.088 202.582 129.796 202.582 130.588V139.804C202.582 140.428 202.378 140.956 201.97 141.388C201.562 141.796 201.046 142 200.422 142C199.798 142 199.282 141.796 198.874 141.388C198.466 140.956 198.262 140.428 198.262 139.804V130.588C198.262 129.796 198.166 129.088 197.974 128.464C197.782 127.816 197.434 127.3 196.93 126.916C196.426 126.532 195.706 126.34 194.77 126.34C193.858 126.34 193.078 126.532 192.43 126.916C191.782 127.3 191.29 127.816 190.954 128.464C190.642 129.088 190.486 129.796 190.486 130.588V139.804C190.486 140.428 190.282 140.956 189.874 141.388C189.466 141.796 188.95 142 188.326 142C187.702 142 187.186 141.796 186.778 141.388C186.37 140.956 186.166 140.428 186.166 139.804V124.936C186.166 124.312 186.37 123.796 186.778 123.388C187.186 122.956 187.702 122.74 188.326 122.74C188.95 122.74 189.466 122.956 189.874 123.388C190.282 123.796 190.486 124.312 190.486 124.936V126.484L189.946 126.376C190.162 125.968 190.462 125.536 190.846 125.08C191.23 124.6 191.698 124.156 192.25 123.748C192.802 123.34 193.414 123.016 194.086 122.776C194.758 122.512 195.49 122.38 196.282 122.38ZM239.056 122.452L231.28 140.74C231.112 141.196 230.848 141.556 230.488 141.82C230.152 142.06 229.78 142.18 229.372 142.18C228.724 142.18 228.244 142 227.932 141.64C227.62 141.28 227.464 140.836 227.464 140.308C227.464 140.092 227.5 139.864 227.572 139.624L236.536 118.096C236.728 117.616 237.016 117.244 237.4 116.98C237.808 116.716 238.24 116.608 238.696 116.656C239.128 116.656 239.524 116.788 239.884 117.052C240.268 117.292 240.544 117.64 240.712 118.096L249.568 139.192C249.688 139.504 249.748 139.792 249.748 140.056C249.748 140.704 249.532 141.22 249.1 141.604C248.692 141.988 248.236 142.18 247.732 142.18C247.3 142.18 246.904 142.048 246.544 141.784C246.208 141.52 245.944 141.16 245.752 140.704L238.012 122.668L239.056 122.452ZM232.396 136.348L234.376 132.208H244.096L244.78 136.348H232.396ZM254.596 142C253.972 142 253.456 141.796 253.048 141.388C252.64 140.956 252.436 140.428 252.436 139.804V124.936C252.436 124.312 252.64 123.796 253.048 123.388C253.456 122.956 253.972 122.74 254.596 122.74C255.22 122.74 255.736 122.956 256.144 123.388C256.552 123.796 256.756 124.312 256.756 124.936V128.32L256.504 125.908C256.768 125.332 257.104 124.828 257.512 124.396C257.944 123.94 258.424 123.568 258.952 123.28C259.48 122.968 260.044 122.74 260.644 122.596C261.244 122.452 261.844 122.38 262.444 122.38C263.164 122.38 263.764 122.584 264.244 122.992C264.748 123.4 265 123.88 265 124.432C265 125.224 264.796 125.8 264.388 126.16C263.98 126.496 263.536 126.664 263.056 126.664C262.6 126.664 262.18 126.58 261.796 126.412C261.436 126.244 261.016 126.16 260.536 126.16C260.104 126.16 259.66 126.268 259.204 126.484C258.772 126.676 258.364 126.988 257.98 127.42C257.62 127.852 257.32 128.392 257.08 129.04C256.864 129.664 256.756 130.408 256.756 131.272V139.804C256.756 140.428 256.552 140.956 256.144 141.388C255.736 141.796 255.22 142 254.596 142ZM275.804 122.38C277.172 122.38 278.36 122.524 279.368 122.812C280.4 123.1 281.192 123.508 281.744 124.036C282.32 124.54 282.608 125.152 282.608 125.872C282.608 126.352 282.464 126.808 282.176 127.24C281.888 127.648 281.468 127.852 280.916 127.852C280.532 127.852 280.208 127.804 279.944 127.708C279.704 127.588 279.488 127.444 279.296 127.276C279.104 127.108 278.876 126.952 278.612 126.808C278.372 126.664 278 126.556 277.496 126.484C277.016 126.388 276.656 126.34 276.416 126.34C275.192 126.34 274.148 126.604 273.284 127.132C272.444 127.66 271.796 128.38 271.34 129.292C270.884 130.18 270.656 131.212 270.656 132.388C270.656 133.54 270.884 134.572 271.34 135.484C271.82 136.372 272.468 137.08 273.284 137.608C274.124 138.136 275.084 138.4 276.164 138.4C276.764 138.4 277.28 138.364 277.712 138.292C278.144 138.22 278.504 138.112 278.792 137.968C279.128 137.776 279.428 137.572 279.692 137.356C279.956 137.14 280.352 137.032 280.88 137.032C281.504 137.032 281.984 137.236 282.32 137.644C282.656 138.028 282.824 138.508 282.824 139.084C282.824 139.684 282.488 140.236 281.816 140.74C281.144 141.22 280.256 141.616 279.152 141.928C278.072 142.216 276.896 142.36 275.624 142.36C273.728 142.36 272.084 141.928 270.692 141.064C269.3 140.176 268.22 138.976 267.452 137.464C266.708 135.952 266.336 134.26 266.336 132.388C266.336 130.42 266.732 128.692 267.524 127.204C268.34 125.692 269.456 124.516 270.872 123.676C272.312 122.812 273.956 122.38 275.804 122.38ZM296.056 122.38C297.784 122.38 299.092 122.752 299.98 123.496C300.892 124.24 301.516 125.236 301.852 126.484C302.188 127.708 302.356 129.076 302.356 130.588V139.804C302.356 140.428 302.152 140.956 301.744 141.388C301.336 141.796 300.82 142 300.196 142C299.572 142 299.056 141.796 298.648 141.388C298.24 140.956 298.036 140.428 298.036 139.804V130.588C298.036 129.796 297.94 129.088 297.748 128.464C297.556 127.816 297.208 127.3 296.704 126.916C296.2 126.532 295.48 126.34 294.544 126.34C293.632 126.34 292.852 126.532 292.204 126.916C291.556 127.3 291.064 127.816 290.728 128.464C290.416 129.088 290.26 129.796 290.26 130.588V139.804C290.26 140.428 290.056 140.956 289.648 141.388C289.24 141.796 288.724 142 288.1 142C287.476 142 286.96 141.796 286.552 141.388C286.144 140.956 285.94 140.428 285.94 139.804V117.556C285.94 116.932 286.144 116.416 286.552 116.008C286.96 115.576 287.476 115.36 288.1 115.36C288.724 115.36 289.24 115.576 289.648 116.008C290.056 116.416 290.26 116.932 290.26 117.556V126.484L289.72 126.376C289.936 125.968 290.236 125.536 290.62 125.08C291.004 124.6 291.472 124.156 292.024 123.748C292.576 123.34 293.188 123.016 293.86 122.776C294.532 122.512 295.264 122.38 296.056 122.38ZM311.101 139.804C311.101 140.428 310.897 140.956 310.489 141.388C310.081 141.796 309.565 142 308.941 142C308.317 142 307.801 141.796 307.393 141.388C306.985 140.956 306.781 140.428 306.781 139.804V124.936C306.781 124.312 306.985 123.796 307.393 123.388C307.801 122.956 308.317 122.74 308.941 122.74C309.565 122.74 310.081 122.956 310.489 123.388C310.897 123.796 311.101 124.312 311.101 124.936V139.804ZM308.905 120.4C308.089 120.4 307.513 120.268 307.177 120.004C306.841 119.74 306.673 119.272 306.673 118.6V117.916C306.673 117.22 306.853 116.752 307.213 116.512C307.597 116.248 308.173 116.116 308.941 116.116C309.781 116.116 310.369 116.248 310.705 116.512C311.041 116.776 311.209 117.244 311.209 117.916V118.6C311.209 119.296 311.029 119.776 310.669 120.04C310.309 120.28 309.721 120.4 308.905 120.4ZM315.757 123.1H324.289C324.865 123.1 325.345 123.292 325.729 123.676C326.113 124.06 326.305 124.54 326.305 125.116C326.305 125.668 326.113 126.136 325.729 126.52C325.345 126.88 324.865 127.06 324.289 127.06H315.757C315.181 127.06 314.701 126.868 314.317 126.484C313.933 126.1 313.741 125.62 313.741 125.044C313.741 124.492 313.933 124.036 314.317 123.676C314.701 123.292 315.181 123.1 315.757 123.1ZM319.609 118.6C320.233 118.6 320.737 118.816 321.121 119.248C321.529 119.656 321.733 120.172 321.733 120.796V136.816C321.733 137.152 321.793 137.428 321.913 137.644C322.057 137.86 322.237 138.016 322.453 138.112C322.693 138.208 322.945 138.256 323.209 138.256C323.497 138.256 323.761 138.208 324.001 138.112C324.241 137.992 324.517 137.932 324.829 137.932C325.165 137.932 325.465 138.088 325.729 138.4C326.017 138.712 326.161 139.144 326.161 139.696C326.161 140.368 325.789 140.92 325.045 141.352C324.325 141.784 323.545 142 322.705 142C322.201 142 321.637 141.964 321.013 141.892C320.413 141.796 319.837 141.592 319.285 141.28C318.757 140.944 318.313 140.44 317.953 139.768C317.593 139.096 317.413 138.172 317.413 136.996V120.796C317.413 120.172 317.617 119.656 318.025 119.248C318.457 118.816 318.985 118.6 319.609 118.6ZM339.168 142.36C337.128 142.36 335.352 141.94 333.84 141.1C332.352 140.236 331.2 139.072 330.384 137.608C329.592 136.144 329.196 134.488 329.196 132.64C329.196 130.48 329.628 128.644 330.492 127.132C331.38 125.596 332.532 124.42 333.948 123.604C335.364 122.788 336.864 122.38 338.448 122.38C339.672 122.38 340.824 122.632 341.904 123.136C343.008 123.64 343.98 124.336 344.82 125.224C345.66 126.088 346.32 127.096 346.8 128.248C347.304 129.4 347.556 130.624 347.556 131.92C347.532 132.496 347.304 132.964 346.872 133.324C346.44 133.684 345.936 133.864 345.36 133.864H331.608L330.528 130.264H343.74L342.948 130.984V130.012C342.9 129.316 342.648 128.692 342.192 128.14C341.76 127.588 341.208 127.156 340.536 126.844C339.888 126.508 339.192 126.34 338.448 126.34C337.728 126.34 337.056 126.436 336.432 126.628C335.808 126.82 335.268 127.144 334.812 127.6C334.356 128.056 333.996 128.668 333.732 129.436C333.468 130.204 333.336 131.176 333.336 132.352C333.336 133.648 333.6 134.752 334.128 135.664C334.68 136.552 335.376 137.236 336.216 137.716C337.08 138.172 337.992 138.4 338.952 138.4C339.84 138.4 340.548 138.328 341.076 138.184C341.604 138.04 342.024 137.872 342.336 137.68C342.672 137.464 342.972 137.284 343.236 137.14C343.668 136.924 344.076 136.816 344.46 136.816C344.988 136.816 345.42 136.996 345.756 137.356C346.116 137.716 346.296 138.136 346.296 138.616C346.296 139.264 345.96 139.852 345.288 140.38C344.664 140.908 343.788 141.376 342.66 141.784C341.532 142.168 340.368 142.36 339.168 142.36ZM359.898 122.38C361.266 122.38 362.454 122.524 363.462 122.812C364.494 123.1 365.286 123.508 365.838 124.036C366.414 124.54 366.702 125.152 366.702 125.872C366.702 126.352 366.558 126.808 366.27 127.24C365.982 127.648 365.562 127.852 365.01 127.852C364.626 127.852 364.302 127.804 364.038 127.708C363.798 127.588 363.582 127.444 363.39 127.276C363.198 127.108 362.97 126.952 362.706 126.808C362.466 126.664 362.094 126.556 361.59 126.484C361.11 126.388 360.75 126.34 360.51 126.34C359.286 126.34 358.242 126.604 357.378 127.132C356.538 127.66 355.89 128.38 355.434 129.292C354.978 130.18 354.75 131.212 354.75 132.388C354.75 133.54 354.978 134.572 355.434 135.484C355.914 136.372 356.562 137.08 357.378 137.608C358.218 138.136 359.178 138.4 360.258 138.4C360.858 138.4 361.374 138.364 361.806 138.292C362.238 138.22 362.598 138.112 362.886 137.968C363.222 137.776 363.522 137.572 363.786 137.356C364.05 137.14 364.446 137.032 364.974 137.032C365.598 137.032 366.078 137.236 366.414 137.644C366.75 138.028 366.918 138.508 366.918 139.084C366.918 139.684 366.582 140.236 365.91 140.74C365.238 141.22 364.35 141.616 363.246 141.928C362.166 142.216 360.99 142.36 359.718 142.36C357.822 142.36 356.178 141.928 354.786 141.064C353.394 140.176 352.314 138.976 351.546 137.464C350.802 135.952 350.43 134.26 350.43 132.388C350.43 130.42 350.826 128.692 351.618 127.204C352.434 125.692 353.55 124.516 354.966 123.676C356.406 122.812 358.05 122.38 359.898 122.38ZM370.249 123.1H378.781C379.357 123.1 379.837 123.292 380.221 123.676C380.605 124.06 380.797 124.54 380.797 125.116C380.797 125.668 380.605 126.136 380.221 126.52C379.837 126.88 379.357 127.06 378.781 127.06H370.249C369.673 127.06 369.193 126.868 368.809 126.484C368.425 126.1 368.233 125.62 368.233 125.044C368.233 124.492 368.425 124.036 368.809 123.676C369.193 123.292 369.673 123.1 370.249 123.1ZM374.101 118.6C374.725 118.6 375.229 118.816 375.613 119.248C376.021 119.656 376.225 120.172 376.225 120.796V136.816C376.225 137.152 376.285 137.428 376.405 137.644C376.549 137.86 376.729 138.016 376.945 138.112C377.185 138.208 377.437 138.256 377.701 138.256C377.989 138.256 378.253 138.208 378.493 138.112C378.733 137.992 379.009 137.932 379.321 137.932C379.657 137.932 379.957 138.088 380.221 138.4C380.509 138.712 380.653 139.144 380.653 139.696C380.653 140.368 380.281 140.92 379.537 141.352C378.817 141.784 378.037 142 377.197 142C376.693 142 376.129 141.964 375.505 141.892C374.905 141.796 374.329 141.592 373.777 141.28C373.249 140.944 372.805 140.44 372.445 139.768C372.085 139.096 371.905 138.172 371.905 136.996V120.796C371.905 120.172 372.109 119.656 372.517 119.248C372.949 118.816 373.477 118.6 374.101 118.6ZM399.056 122.74C399.68 122.74 400.196 122.956 400.604 123.388C401.012 123.796 401.216 124.312 401.216 124.936V134.08C401.216 136.624 400.508 138.64 399.092 140.128C397.676 141.616 395.636 142.36 392.972 142.36C390.308 142.36 388.268 141.616 386.852 140.128C385.46 138.64 384.764 136.624 384.764 134.08V124.936C384.764 124.312 384.968 123.796 385.376 123.388C385.784 122.956 386.3 122.74 386.924 122.74C387.548 122.74 388.064 122.956 388.472 123.388C388.88 123.796 389.084 124.312 389.084 124.936V134.08C389.084 135.544 389.408 136.636 390.056 137.356C390.704 138.052 391.676 138.4 392.972 138.4C394.292 138.4 395.276 138.052 395.924 137.356C396.572 136.636 396.896 135.544 396.896 134.08V124.936C396.896 124.312 397.1 123.796 397.508 123.388C397.916 122.956 398.432 122.74 399.056 122.74ZM408.053 142C407.429 142 406.913 141.796 406.505 141.388C406.097 140.956 405.893 140.428 405.893 139.804V124.936C405.893 124.312 406.097 123.796 406.505 123.388C406.913 122.956 407.429 122.74 408.053 122.74C408.677 122.74 409.193 122.956 409.601 123.388C410.009 123.796 410.213 124.312 410.213 124.936V128.32L409.961 125.908C410.225 125.332 410.561 124.828 410.969 124.396C411.401 123.94 411.881 123.568 412.409 123.28C412.937 122.968 413.501 122.74 414.101 122.596C414.701 122.452 415.301 122.38 415.901 122.38C416.621 122.38 417.221 122.584 417.701 122.992C418.205 123.4 418.457 123.88 418.457 124.432C418.457 125.224 418.253 125.8 417.845 126.16C417.437 126.496 416.993 126.664 416.513 126.664C416.057 126.664 415.637 126.58 415.253 126.412C414.893 126.244 414.473 126.16 413.993 126.16C413.561 126.16 413.117 126.268 412.661 126.484C412.229 126.676 411.821 126.988 411.437 127.42C411.077 127.852 410.777 128.392 410.537 129.04C410.321 129.664 410.213 130.408 410.213 131.272V139.804C410.213 140.428 410.009 140.956 409.601 141.388C409.193 141.796 408.677 142 408.053 142ZM429.766 142.36C427.726 142.36 425.95 141.94 424.438 141.1C422.95 140.236 421.798 139.072 420.982 137.608C420.19 136.144 419.794 134.488 419.794 132.64C419.794 130.48 420.226 128.644 421.09 127.132C421.978 125.596 423.13 124.42 424.546 123.604C425.962 122.788 427.462 122.38 429.046 122.38C430.27 122.38 431.422 122.632 432.502 123.136C433.606 123.64 434.578 124.336 435.418 125.224C436.258 126.088 436.918 127.096 437.398 128.248C437.902 129.4 438.154 130.624 438.154 131.92C438.13 132.496 437.902 132.964 437.47 133.324C437.038 133.684 436.534 133.864 435.958 133.864H422.206L421.126 130.264H434.338L433.546 130.984V130.012C433.498 129.316 433.246 128.692 432.79 128.14C432.358 127.588 431.806 127.156 431.134 126.844C430.486 126.508 429.79 126.34 429.046 126.34C428.326 126.34 427.654 126.436 427.03 126.628C426.406 126.82 425.866 127.144 425.41 127.6C424.954 128.056 424.594 128.668 424.33 129.436C424.066 130.204 423.934 131.176 423.934 132.352C423.934 133.648 424.198 134.752 424.726 135.664C425.278 136.552 425.974 137.236 426.814 137.716C427.678 138.172 428.59 138.4 429.55 138.4C430.438 138.4 431.146 138.328 431.674 138.184C432.202 138.04 432.622 137.872 432.934 137.68C433.27 137.464 433.57 137.284 433.834 137.14C434.266 136.924 434.674 136.816 435.058 136.816C435.586 136.816 436.018 136.996 436.354 137.356C436.714 137.716 436.894 138.136 436.894 138.616C436.894 139.264 436.558 139.852 435.886 140.38C435.262 140.908 434.386 141.376 433.258 141.784C432.13 142.168 430.966 142.36 429.766 142.36Z" fill="#29375B"/>
<path d="M209.204 42.6798C206.407 42.3596 196.291 42.3486 193.645 42.6743C191 42.9999 189.638 43.9291 186.901 46.0542C184.165 48.1793 181.925 49.4719 181.925 49.4719V53.9999H219.925V49.4719C219.925 49.4719 218 48 215.948 46.0521C213.896 44.1042 212 43 209.204 42.6798Z" fill="#FCD95B" stroke="#FCD95B"/>
<circle cx="193.925" cy="48" r="3" fill="white"/>
<circle cx="207.925" cy="48" r="3" fill="white"/>
<path d="M212.4 19.3335L207.125 31H192.725L187.7 19.8335L190.5 18.5001L195.925 30.1112H204.325L210 18.0001L212.4 19.3335Z" fill="#29375B" stroke="#29375B"/>
<circle cx="188" cy="17" r="3" fill="#29375B"/>
<circle cx="212" cy="17" r="3" fill="#29375B"/>
<path d="M178.004 39.7496C180.029 42.1512 179.113 43.3493 179.488 43.3921L180.238 43.4775L179.309 51.633L177.059 51.3767C177.059 51.3767 176.684 52.1701 174.605 53.0318C172.527 53.8934 171.418 54.2073 171.092 53.736C170.765 53.2646 172.255 50.1953 173.863 48.6661C175.471 47.1368 176.848 46.5646 176.848 46.5646C177.144 46.2974 176.896 46.136 176.896 46.136C176.896 46.136 174.441 43.5945 173.866 41.3884C173.291 39.1823 173.373 37.0511 173.748 37.0938C173.748 37.0938 175.979 37.348 178.004 39.7496Z" fill="#29375B" stroke="#29375B"/>
<path d="M221.925 52C221.925 57.1797 221.921 60.8744 221.581 63.6042C221.241 66.3245 220.611 67.6489 219.719 68.4445C218.778 69.283 217.17 69.8779 214.024 70.1894C210.912 70.4976 206.718 70.5 200.925 70.5C195.131 70.5 190.937 70.4976 187.825 70.1894C184.68 69.8779 183.071 69.283 182.13 68.4445C181.238 67.6489 180.608 66.3245 180.269 63.6042C179.928 60.8744 179.925 57.1797 179.925 52C179.925 40.402 189.327 31 200.925 31C212.523 31 221.925 40.402 221.925 52Z" stroke="#29375B" stroke-width="4"/>
<path d="M108.16 38.3516H118.285V43.1855H116.123V65H110.287L99.1953 47.7734V60.1836H101.428V65H91.3203V60.1836H93.5176V43.1855H91.3555V38.3516H99.4062L110.428 55.8066V43.1855H108.16V38.3516ZM120.588 46.7891H128.762V60.1836H131.293V65H120.588V60.1836H123.33V51.6055H120.588V46.7891ZM123.049 40.918C123.049 40.4844 123.125 40.0801 123.277 39.7051C123.441 39.3184 123.664 38.9844 123.945 38.7031C124.227 38.4219 124.555 38.1992 124.93 38.0352C125.316 37.8711 125.732 37.7891 126.178 37.7891C126.6 37.7891 126.998 37.8711 127.373 38.0352C127.748 38.1992 128.076 38.4219 128.357 38.7031C128.639 38.9844 128.861 39.3184 129.025 39.7051C129.189 40.0801 129.271 40.4844 129.271 40.918C129.271 41.3516 129.189 41.7617 129.025 42.1484C128.861 42.5234 128.639 42.8516 128.357 43.1328C128.076 43.4141 127.748 43.6367 127.373 43.8008C126.998 43.9648 126.6 44.0469 126.178 44.0469C125.732 44.0469 125.316 43.9648 124.93 43.8008C124.555 43.6367 124.227 43.4141 123.945 43.1328C123.664 42.8516 123.441 42.5234 123.277 42.1484C123.125 41.7617 123.049 41.3516 123.049 40.918ZM149.451 54.5234C149.451 53.5039 149.182 52.707 148.643 52.1328C148.104 51.5469 147.389 51.2539 146.498 51.2539C145.889 51.2539 145.273 51.3887 144.652 51.6582C144.031 51.9277 143.428 52.4316 142.842 53.1699V60.1836H145.795V65H134.475V60.1836H137.146V51.6055H134.51V46.7891H142.807V48.3887C143.568 47.791 144.418 47.3223 145.355 46.9824C146.305 46.6309 147.301 46.4551 148.344 46.4551C150.535 46.4551 152.223 47.0703 153.406 48.3008C154.59 49.5195 155.182 51.3066 155.182 53.6621V60.1836H157.766V65H149.451V54.5234ZM159.629 46.7891H167.627V65.3164C167.627 66.7109 167.451 67.9062 167.1 68.9023C166.76 69.8984 166.256 70.7188 165.588 71.3633C164.932 72.0078 164.117 72.4824 163.145 72.7871C162.172 73.0918 161.059 73.2441 159.805 73.2441L159.734 69.2539C160.578 69.2188 161.205 68.8789 161.615 68.2344C162.025 67.6016 162.23 66.752 162.23 65.6855V51.6055H159.629V46.7891ZM161.932 40.918C161.932 40.4844 162.008 40.0801 162.16 39.7051C162.324 39.3184 162.547 38.9844 162.828 38.7031C163.109 38.4219 163.438 38.1992 163.812 38.0352C164.199 37.8711 164.615 37.7891 165.061 37.7891C165.482 37.7891 165.881 37.8711 166.256 38.0352C166.643 38.1992 166.977 38.4219 167.258 38.7031C167.551 38.9844 167.779 39.3184 167.943 39.7051C168.119 40.0801 168.207 40.4844 168.207 40.918C168.207 41.3516 168.119 41.7617 167.943 42.1484C167.779 42.5234 167.551 42.8516 167.258 43.1328C166.977 43.4141 166.643 43.6367 166.256 43.8008C165.881 43.9648 165.482 44.0469 165.061 44.0469C164.615 44.0469 164.199 43.9648 163.812 43.8008C163.438 43.6367 163.109 43.4141 162.828 43.1328C162.547 42.8516 162.324 42.5234 162.16 42.1484C162.008 41.7617 161.932 41.3516 161.932 40.918Z" fill="#29375B"/>
<path d="M245.545 48.4551C244.889 47.5176 244.297 46.8555 243.77 46.4688C243.242 46.0703 242.674 45.7891 242.064 45.625C241.455 45.4492 240.816 45.3613 240.148 45.3613C239.164 45.3613 238.25 45.584 237.406 46.0293C236.562 46.4629 235.83 47.0605 235.209 47.8223C234.6 48.5723 234.119 49.4512 233.768 50.459C233.416 51.4551 233.24 52.5156 233.24 53.6406C233.24 54.7773 233.41 55.8496 233.75 56.8574C234.102 57.8535 234.582 58.7266 235.191 59.4766C235.801 60.2266 236.527 60.8242 237.371 61.2695C238.215 61.7031 239.141 61.9199 240.148 61.9199C240.852 61.9199 241.508 61.8086 242.117 61.5859C242.727 61.3516 243.277 61.0469 243.77 60.6719C244.273 60.2969 244.713 59.8691 245.088 59.3887C245.463 58.8965 245.756 58.3867 245.967 57.8594L251.627 59.4414C251.264 60.5898 250.73 61.6562 250.027 62.6406C249.324 63.6133 248.475 64.457 247.479 65.1719C246.494 65.8867 245.381 66.4492 244.139 66.8594C242.908 67.2695 241.578 67.4746 240.148 67.4746C238.941 67.4746 237.787 67.3105 236.686 66.9824C235.584 66.6543 234.553 66.1914 233.592 65.5938C232.643 64.9961 231.775 64.2754 230.99 63.4316C230.217 62.5879 229.555 61.6562 229.004 60.6367C228.453 59.6055 228.025 58.5039 227.721 57.332C227.416 56.1484 227.264 54.918 227.264 53.6406C227.264 51.7305 227.598 49.9434 228.266 48.2793C228.934 46.6035 229.848 45.1445 231.008 43.9023C232.168 42.6484 233.527 41.6641 235.086 40.9492C236.656 40.2227 238.344 39.8594 240.148 39.8594C241.59 39.8594 242.803 40.041 243.787 40.4043C244.771 40.7559 245.855 41.459 247.039 42.5137H250.977V48.4551H245.545ZM267.465 67.4746C266.258 67.4746 265.104 67.3105 264.002 66.9824C262.9 66.6543 261.869 66.1914 260.908 65.5938C259.959 64.9961 259.092 64.2812 258.307 63.4492C257.533 62.6055 256.871 61.6738 256.32 60.6543C255.77 59.623 255.342 58.5215 255.037 57.3496C254.732 56.1777 254.58 54.9531 254.58 53.6758C254.58 52.3984 254.732 51.1738 255.037 50.002C255.342 48.8184 255.77 47.7168 256.32 46.6973C256.871 45.666 257.533 44.7344 258.307 43.9023C259.092 43.0586 259.959 42.3379 260.908 41.7402C261.869 41.1426 262.9 40.6797 264.002 40.3516C265.104 40.0234 266.258 39.8594 267.465 39.8594C268.672 39.8594 269.826 40.0234 270.928 40.3516C272.041 40.6797 273.072 41.1426 274.021 41.7402C274.982 42.3379 275.85 43.0586 276.623 43.9023C277.408 44.7344 278.076 45.666 278.627 46.6973C279.189 47.7168 279.623 48.8184 279.928 50.002C280.232 51.1738 280.385 52.3984 280.385 53.6758C280.385 54.9414 280.232 56.166 279.928 57.3496C279.623 58.5215 279.189 59.623 278.627 60.6543C278.076 61.6738 277.408 62.6055 276.623 63.4492C275.85 64.2812 274.982 64.9961 274.021 65.5938C273.072 66.1914 272.041 66.6543 270.928 66.9824C269.826 67.3105 268.672 67.4746 267.465 67.4746ZM267.465 61.9551C268.484 61.9551 269.416 61.7383 270.26 61.3047C271.115 60.8594 271.848 60.2617 272.457 59.5117C273.066 58.75 273.535 57.8711 273.863 56.875C274.203 55.8672 274.373 54.8008 274.373 53.6758C274.373 52.5391 274.203 51.4668 273.863 50.459C273.523 49.4512 273.043 48.5723 272.422 47.8223C271.812 47.0605 271.086 46.4629 270.242 46.0293C269.398 45.584 268.473 45.3613 267.465 45.3613C266.457 45.3613 265.531 45.584 264.688 46.0293C263.844 46.4629 263.117 47.0605 262.508 47.8223C261.898 48.5723 261.418 49.4512 261.066 50.459C260.727 51.4668 260.557 52.5391 260.557 53.6758C260.557 54.8008 260.727 55.8672 261.066 56.875C261.418 57.8711 261.898 58.75 262.508 59.5117C263.117 60.2617 263.844 60.8594 264.688 61.3047C265.531 61.7383 266.457 61.9551 267.465 61.9551Z" fill="#29375B"/>
<g clip-path="url(#clip0_1166_1467)">
<mask id="mask0_1166_1467" style="mask-type:luminance" maskUnits="userSpaceOnUse" x="1227" y="42" width="101" height="101">
<path d="M1227 42H1328V143H1227V42Z" fill="white"/>
</mask>
<g mask="url(#mask0_1166_1467)">
<path d="M1301.38 90.0087L1293.36 114.059C1293.23 114.445 1293.01 114.794 1292.72 115.077C1292.43 115.359 1292.08 115.568 1291.69 115.684L1242.54 130.291C1242.1 130.422 1241.63 130.43 1241.18 130.313C1240.73 130.195 1240.33 129.958 1240.01 129.626C1239.69 129.294 1239.46 128.88 1239.36 128.43C1239.26 127.979 1239.28 127.51 1239.43 127.071L1255.39 79.2059C1255.5 78.8622 1255.69 78.5471 1255.93 78.2821C1256.18 78.0171 1256.48 77.8082 1256.82 77.6698L1279.49 68.3357C1279.95 68.1454 1280.45 68.0958 1280.94 68.1931C1281.43 68.2905 1281.88 68.5305 1282.23 68.8828L1300.77 87.4205C1301.1 87.7525 1301.33 88.1705 1301.44 88.6278C1301.55 89.085 1301.53 89.5632 1301.38 90.0087Z" fill="#A7BFDC"/>
<path d="M1240.87 128.7L1267.65 101.918M1301.38 90.0087L1293.36 114.059C1293.23 114.445 1293.01 114.794 1292.72 115.077C1292.43 115.359 1292.08 115.568 1291.69 115.684L1242.54 130.291C1242.1 130.422 1241.63 130.43 1241.18 130.313C1240.73 130.195 1240.33 129.958 1240.01 129.626C1239.69 129.294 1239.46 128.88 1239.36 128.43C1239.26 127.979 1239.28 127.51 1239.43 127.071L1255.39 79.2059C1255.5 78.8622 1255.69 78.5471 1255.93 78.2821C1256.18 78.0171 1256.48 77.8082 1256.82 77.6698L1279.49 68.3357C1279.95 68.1454 1280.45 68.0958 1280.94 68.1931C1281.43 68.2905 1281.88 68.5305 1282.23 68.8828L1300.77 87.4205C1301.1 87.7525 1301.33 88.1705 1301.44 88.6278C1301.55 89.085 1301.53 89.5632 1301.38 90.0087Z" stroke="#29375B" stroke-width="5" stroke-linecap="round" stroke-linejoin="round"/>
<path d="M1301.87 88.5274L1313.78 76.622C1315.35 75.0436 1316.24 72.9032 1316.24 70.6714C1316.24 68.4396 1315.35 66.2992 1313.78 64.7208L1304.85 55.7907C1304.07 55.0088 1303.14 54.3885 1302.12 53.9653C1301.1 53.5422 1300.01 53.3243 1298.9 53.3243C1297.8 53.3243 1296.7 53.5422 1295.68 53.9653C1294.66 54.3885 1293.73 55.0088 1292.95 55.7907L1281.05 67.6961M1276.58 92.9882C1275.99 92.4021 1275.3 91.9373 1274.53 91.6202C1273.76 91.3031 1272.94 91.14 1272.11 91.1402C1271.28 91.1404 1270.46 91.3039 1269.7 91.6213C1268.93 91.9388 1268.24 92.4039 1267.65 92.9903C1267.06 93.5767 1266.6 94.2727 1266.28 95.0387C1265.97 95.8047 1265.8 96.6257 1265.8 97.4547C1265.8 98.2838 1265.97 99.1046 1266.28 99.8705C1266.6 100.636 1267.07 101.332 1267.65 101.918C1268.84 103.102 1270.44 103.767 1272.12 103.766C1273.79 103.766 1275.4 103.1 1276.58 101.916C1277.76 100.732 1278.43 99.1261 1278.43 97.4517C1278.43 95.7774 1277.76 94.1718 1276.58 92.9882Z" stroke="#29375B" stroke-width="5" stroke-linecap="round" stroke-linejoin="round"/>
</g>
</g>
<defs>
<clipPath id="clip0_1166_1467">
<rect width="101" height="101" fill="white" transform="translate(1227 42)"/>
</clipPath>
</defs>
</svg>
