<svg width="1363" height="173" viewBox="0 0 1363 173" fill="none" xmlns="http://www.w3.org/2000/svg">
<mask id="path-1-inside-1_1166_1448" fill="white">
<path d="M0 10C0 4.47715 4.47715 0 10 0H1353C1358.52 0 1363 4.47715 1363 10V163C1363 168.523 1358.52 173 1353 173H9.99997C4.47712 173 0 168.523 0 163V10Z"/>
</mask>
<path d="M0 10C0 4.47715 4.47715 0 10 0H1353C1358.52 0 1363 4.47715 1363 10V163C1363 168.523 1358.52 173 1353 173H9.99997C4.47712 173 0 168.523 0 163V10Z" fill="#FFFBEF"/>
<path d="M0 0H1363H0ZM1363 173H0H1363ZM10 173C-15.9574 173 -37 151.957 -37 126V47C-37 21.0426 -15.9574 0 10 0H37C37 0 37 4.47715 37 10V163C37 168.523 37 173 37 173H10ZM1456.5 0C1504.27 0 1543 38.7274 1543 86.5C1543 134.273 1504.27 173 1456.5 173H1183C1183 173 1183 168.523 1183 163V10C1183 4.47715 1183 0 1183 0H1456.5Z" fill="#FCD95B" mask="url(#path-1-inside-1_1166_1448)"/>
<path d="M93.3003 120.8H105.36C105.984 120.8 106.5 121.004 106.908 121.412C107.34 121.796 107.556 122.3 107.556 122.924C107.556 123.524 107.34 124.016 106.908 124.4C106.5 124.76 105.984 124.94 105.36 124.94H95.2803L95.6043 124.328V131.348L95.3163 131.06H103.74C104.364 131.06 104.88 131.264 105.288 131.672C105.72 132.056 105.936 132.56 105.936 133.184C105.936 133.784 105.72 134.276 105.288 134.66C104.88 135.02 104.364 135.2 103.74 135.2H95.4243L95.6043 134.912V142.184L95.3163 141.86H105.36C105.984 141.86 106.5 142.076 106.908 142.508C107.34 142.916 107.556 143.396 107.556 143.948C107.556 144.548 107.34 145.04 106.908 145.424C106.5 145.808 105.984 146 105.36 146H93.3003C92.6763 146 92.1483 145.796 91.7163 145.388C91.3083 144.956 91.1043 144.428 91.1043 143.804V122.996C91.1043 122.372 91.3083 121.856 91.7163 121.448C92.1483 121.016 92.6763 120.8 93.3003 120.8ZM114.298 146C113.626 146 113.026 145.796 112.498 145.388C111.97 144.956 111.706 144.428 111.706 143.804V122.996C111.706 122.372 111.91 121.856 112.318 121.448C112.75 121.016 113.278 120.8 113.902 120.8H124.27C125.518 120.8 126.682 121.136 127.762 121.808C128.866 122.456 129.754 123.368 130.426 124.544C131.098 125.696 131.434 127.028 131.434 128.54C131.434 129.452 131.242 130.34 130.858 131.204C130.498 132.068 129.994 132.848 129.346 133.544C128.722 134.24 128.014 134.78 127.222 135.164L127.258 134.336C127.93 134.696 128.482 135.128 128.914 135.632C129.37 136.112 129.718 136.64 129.958 137.216C130.222 137.768 130.378 138.368 130.426 139.016C130.522 139.616 130.582 140.144 130.606 140.6C130.654 141.056 130.726 141.44 130.822 141.752C130.942 142.064 131.158 142.304 131.47 142.472C131.998 142.784 132.322 143.24 132.442 143.84C132.586 144.416 132.454 144.932 132.046 145.388C131.782 145.7 131.446 145.904 131.038 146C130.63 146.072 130.222 146.072 129.814 146C129.406 145.904 129.07 145.784 128.806 145.64C128.398 145.4 127.99 145.052 127.582 144.596C127.174 144.116 126.838 143.48 126.574 142.688C126.334 141.896 126.214 140.876 126.214 139.628C126.214 139.22 126.142 138.848 125.998 138.512C125.854 138.152 125.65 137.852 125.386 137.612C125.122 137.348 124.786 137.156 124.378 137.036C123.97 136.892 123.49 136.82 122.938 136.82H115.666L116.206 135.992V143.804C116.206 144.428 116.038 144.956 115.702 145.388C115.366 145.796 114.898 146 114.298 146ZM115.702 133.112H124.09C124.522 133.112 124.942 132.92 125.35 132.536C125.758 132.128 126.094 131.588 126.358 130.916C126.622 130.22 126.754 129.464 126.754 128.648C126.754 127.592 126.466 126.716 125.89 126.02C125.338 125.3 124.738 124.94 124.09 124.94H115.774L116.206 123.788V133.976L115.702 133.112ZM157.311 120.8C159.039 120.8 160.575 121.124 161.919 121.772C163.263 122.42 164.391 123.332 165.303 124.508C166.239 125.66 166.935 127.004 167.391 128.54C167.871 130.052 168.111 131.672 168.111 133.4C168.111 135.728 167.691 137.852 166.851 139.772C166.011 141.668 164.787 143.18 163.179 144.308C161.595 145.436 159.639 146 157.311 146H148.707C148.083 146 147.555 145.796 147.123 145.388C146.715 144.956 146.511 144.428 146.511 143.804V122.996C146.511 122.372 146.715 121.856 147.123 121.448C147.555 121.016 148.083 120.8 148.707 120.8H157.311ZM156.951 141.86C158.463 141.86 159.699 141.476 160.659 140.708C161.619 139.916 162.315 138.884 162.747 137.612C163.203 136.316 163.431 134.912 163.431 133.4C163.431 132.272 163.299 131.204 163.035 130.196C162.795 129.164 162.411 128.264 161.883 127.496C161.355 126.704 160.683 126.08 159.867 125.624C159.051 125.168 158.079 124.94 156.951 124.94H150.651L151.011 124.616V142.256L150.795 141.86H156.951ZM175.953 143.804C175.953 144.428 175.749 144.956 175.341 145.388C174.933 145.796 174.417 146 173.793 146C173.169 146 172.653 145.796 172.245 145.388C171.837 144.956 171.633 144.428 171.633 143.804V128.936C171.633 128.312 171.837 127.796 172.245 127.388C172.653 126.956 173.169 126.74 173.793 126.74C174.417 126.74 174.933 126.956 175.341 127.388C175.749 127.796 175.953 128.312 175.953 128.936V143.804ZM173.757 124.4C172.941 124.4 172.365 124.268 172.029 124.004C171.693 123.74 171.525 123.272 171.525 122.6V121.916C171.525 121.22 171.705 120.752 172.065 120.512C172.449 120.248 173.025 120.116 173.793 120.116C174.633 120.116 175.221 120.248 175.557 120.512C175.893 120.776 176.061 121.244 176.061 121.916V122.6C176.061 123.296 175.881 123.776 175.521 124.04C175.161 124.28 174.573 124.4 173.757 124.4ZM196.161 126.38C196.785 126.38 197.301 126.584 197.709 126.992C198.117 127.4 198.321 127.928 198.321 128.576V143.804C198.321 144.428 198.117 144.956 197.709 145.388C197.301 145.796 196.785 146 196.161 146C195.537 146 195.021 145.796 194.613 145.388C194.205 144.956 194.001 144.428 194.001 143.804V142.04L194.793 142.364C194.793 142.676 194.625 143.06 194.289 143.516C193.953 143.948 193.497 144.38 192.921 144.812C192.345 145.244 191.661 145.616 190.869 145.928C190.101 146.216 189.261 146.36 188.349 146.36C186.693 146.36 185.193 145.94 183.849 145.1C182.505 144.236 181.437 143.06 180.645 141.572C179.877 140.06 179.493 138.332 179.493 136.388C179.493 134.42 179.877 132.692 180.645 131.204C181.437 129.692 182.493 128.516 183.813 127.676C185.133 126.812 186.597 126.38 188.205 126.38C189.237 126.38 190.185 126.536 191.049 126.848C191.913 127.16 192.657 127.556 193.281 128.036C193.929 128.516 194.421 129.008 194.757 129.512C195.117 129.992 195.297 130.4 195.297 130.736L194.001 131.204V128.576C194.001 127.952 194.205 127.436 194.613 127.028C195.021 126.596 195.537 126.38 196.161 126.38ZM188.889 142.4C189.945 142.4 190.869 142.136 191.661 141.608C192.453 141.08 193.065 140.36 193.497 139.448C193.953 138.536 194.181 137.516 194.181 136.388C194.181 135.236 193.953 134.204 193.497 133.292C193.065 132.38 192.453 131.66 191.661 131.132C190.869 130.604 189.945 130.34 188.889 130.34C187.857 130.34 186.945 130.604 186.153 131.132C185.361 131.66 184.737 132.38 184.281 133.292C183.849 134.204 183.633 135.236 183.633 136.388C183.633 137.516 183.849 138.536 184.281 139.448C184.737 140.36 185.361 141.08 186.153 141.608C186.945 142.136 187.857 142.4 188.889 142.4ZM210.99 126.38C211.998 126.38 212.922 126.536 213.762 126.848C214.602 127.16 215.322 127.556 215.922 128.036C216.546 128.516 217.026 129.008 217.362 129.512C217.722 129.992 217.902 130.4 217.902 130.736L216.966 131.204V128.576C216.966 127.952 217.17 127.436 217.578 127.028C217.986 126.596 218.502 126.38 219.126 126.38C219.75 126.38 220.266 126.584 220.674 126.992C221.082 127.4 221.286 127.928 221.286 128.576V144.596C221.286 146.684 220.83 148.352 219.918 149.6C219.03 150.872 217.854 151.784 216.39 152.336C214.926 152.912 213.354 153.2 211.674 153.2C211.194 153.2 210.57 153.14 209.802 153.02C209.034 152.9 208.302 152.756 207.606 152.588C206.91 152.42 206.382 152.264 206.022 152.12C205.302 151.808 204.798 151.412 204.51 150.932C204.246 150.476 204.198 149.984 204.366 149.456C204.582 148.76 204.93 148.28 205.41 148.016C205.89 147.776 206.394 147.752 206.922 147.944C207.162 148.016 207.558 148.16 208.11 148.376C208.662 148.592 209.262 148.784 209.91 148.952C210.582 149.144 211.17 149.24 211.674 149.24C213.474 149.24 214.806 148.88 215.67 148.16C216.534 147.44 216.966 146.444 216.966 145.172V142.04L217.398 142.364C217.398 142.676 217.23 143.06 216.894 143.516C216.582 143.948 216.138 144.38 215.562 144.812C215.01 145.244 214.35 145.616 213.582 145.928C212.814 146.216 211.998 146.36 211.134 146.36C209.43 146.36 207.894 145.94 206.526 145.1C205.158 144.236 204.078 143.06 203.286 141.572C202.494 140.06 202.098 138.332 202.098 136.388C202.098 134.42 202.494 132.692 203.286 131.204C204.078 129.692 205.146 128.516 206.49 127.676C207.834 126.812 209.334 126.38 210.99 126.38ZM211.674 130.34C210.594 130.34 209.646 130.604 208.83 131.132C208.014 131.66 207.378 132.38 206.922 133.292C206.466 134.204 206.238 135.236 206.238 136.388C206.238 137.516 206.466 138.536 206.922 139.448C207.378 140.36 208.014 141.08 208.83 141.608C209.646 142.136 210.594 142.4 211.674 142.4C212.778 142.4 213.738 142.136 214.554 141.608C215.37 141.08 216.006 140.36 216.462 139.448C216.918 138.536 217.146 137.516 217.146 136.388C217.146 135.236 216.918 134.204 216.462 133.292C216.006 132.38 215.37 131.66 214.554 131.132C213.738 130.604 212.778 130.34 211.674 130.34ZM228.115 146C227.491 146 226.975 145.796 226.567 145.388C226.159 144.956 225.955 144.428 225.955 143.804V128.936C225.955 128.312 226.159 127.796 226.567 127.388C226.975 126.956 227.491 126.74 228.115 126.74C228.739 126.74 229.255 126.956 229.663 127.388C230.071 127.796 230.275 128.312 230.275 128.936V132.32L230.023 129.908C230.287 129.332 230.623 128.828 231.031 128.396C231.463 127.94 231.943 127.568 232.471 127.28C232.999 126.968 233.563 126.74 234.163 126.596C234.763 126.452 235.363 126.38 235.963 126.38C236.683 126.38 237.283 126.584 237.763 126.992C238.267 127.4 238.519 127.88 238.519 128.432C238.519 129.224 238.315 129.8 237.907 130.16C237.499 130.496 237.055 130.664 236.575 130.664C236.119 130.664 235.699 130.58 235.315 130.412C234.955 130.244 234.535 130.16 234.055 130.16C233.623 130.16 233.179 130.268 232.723 130.484C232.291 130.676 231.883 130.988 231.499 131.42C231.139 131.852 230.839 132.392 230.599 133.04C230.383 133.664 230.275 134.408 230.275 135.272V143.804C230.275 144.428 230.071 144.956 229.663 145.388C229.255 145.796 228.739 146 228.115 146ZM256.911 126.38C257.535 126.38 258.051 126.584 258.459 126.992C258.867 127.4 259.071 127.928 259.071 128.576V143.804C259.071 144.428 258.867 144.956 258.459 145.388C258.051 145.796 257.535 146 256.911 146C256.287 146 255.771 145.796 255.363 145.388C254.955 144.956 254.751 144.428 254.751 143.804V142.04L255.543 142.364C255.543 142.676 255.375 143.06 255.039 143.516C254.703 143.948 254.247 144.38 253.671 144.812C253.095 145.244 252.411 145.616 251.619 145.928C250.851 146.216 250.011 146.36 249.099 146.36C247.443 146.36 245.943 145.94 244.599 145.1C243.255 144.236 242.187 143.06 241.395 141.572C240.627 140.06 240.243 138.332 240.243 136.388C240.243 134.42 240.627 132.692 241.395 131.204C242.187 129.692 243.243 128.516 244.563 127.676C245.883 126.812 247.347 126.38 248.955 126.38C249.987 126.38 250.935 126.536 251.799 126.848C252.663 127.16 253.407 127.556 254.031 128.036C254.679 128.516 255.171 129.008 255.507 129.512C255.867 129.992 256.047 130.4 256.047 130.736L254.751 131.204V128.576C254.751 127.952 254.955 127.436 255.363 127.028C255.771 126.596 256.287 126.38 256.911 126.38ZM249.639 142.4C250.695 142.4 251.619 142.136 252.411 141.608C253.203 141.08 253.815 140.36 254.247 139.448C254.703 138.536 254.931 137.516 254.931 136.388C254.931 135.236 254.703 134.204 254.247 133.292C253.815 132.38 253.203 131.66 252.411 131.132C251.619 130.604 250.695 130.34 249.639 130.34C248.607 130.34 247.695 130.604 246.903 131.132C246.111 131.66 245.487 132.38 245.031 133.292C244.599 134.204 244.383 135.236 244.383 136.388C244.383 137.516 244.599 138.536 245.031 139.448C245.487 140.36 246.111 141.08 246.903 141.608C247.695 142.136 248.607 142.4 249.639 142.4ZM273.864 126.38C275.784 126.38 277.2 126.848 278.112 127.784C279.024 128.696 279.624 129.884 279.912 131.348L279.3 131.024L279.588 130.448C279.876 129.896 280.32 129.308 280.92 128.684C281.52 128.036 282.24 127.496 283.08 127.064C283.944 126.608 284.904 126.38 285.96 126.38C287.688 126.38 288.996 126.752 289.884 127.496C290.796 128.24 291.42 129.236 291.756 130.484C292.092 131.708 292.26 133.076 292.26 134.588V143.804C292.26 144.428 292.056 144.956 291.648 145.388C291.24 145.796 290.724 146 290.1 146C289.476 146 288.96 145.796 288.552 145.388C288.144 144.956 287.94 144.428 287.94 143.804V134.588C287.94 133.796 287.844 133.088 287.652 132.464C287.46 131.816 287.112 131.3 286.608 130.916C286.104 130.532 285.384 130.34 284.448 130.34C283.536 130.34 282.756 130.532 282.108 130.916C281.46 131.3 280.968 131.816 280.632 132.464C280.32 133.088 280.164 133.796 280.164 134.588V143.804C280.164 144.428 279.96 144.956 279.552 145.388C279.144 145.796 278.628 146 278.004 146C277.38 146 276.864 145.796 276.456 145.388C276.048 144.956 275.844 144.428 275.844 143.804V134.588C275.844 133.796 275.748 133.088 275.556 132.464C275.364 131.816 275.016 131.3 274.512 130.916C274.008 130.532 273.288 130.34 272.352 130.34C271.44 130.34 270.66 130.532 270.012 130.916C269.364 131.3 268.872 131.816 268.536 132.464C268.224 133.088 268.068 133.796 268.068 134.588V143.804C268.068 144.428 267.864 144.956 267.456 145.388C267.048 145.796 266.532 146 265.908 146C265.284 146 264.768 145.796 264.36 145.388C263.952 144.956 263.748 144.428 263.748 143.804V128.936C263.748 128.312 263.952 127.796 264.36 127.388C264.768 126.956 265.284 126.74 265.908 126.74C266.532 126.74 267.048 126.956 267.456 127.388C267.864 127.796 268.068 128.312 268.068 128.936V130.484L267.528 130.376C267.744 129.968 268.044 129.536 268.428 129.08C268.812 128.6 269.28 128.156 269.832 127.748C270.384 127.34 270.996 127.016 271.668 126.776C272.34 126.512 273.072 126.38 273.864 126.38Z" fill="#29375B"/>
<path d="M209.204 42.6798C206.407 42.3596 196.291 42.3486 193.645 42.6743C191 42.9999 189.638 43.9291 186.901 46.0542C184.165 48.1793 181.925 49.4719 181.925 49.4719V53.9999H219.925V49.4719C219.925 49.4719 218 48 215.948 46.0521C213.896 44.1042 212 43 209.204 42.6798Z" fill="#FCD95B" stroke="#FCD95B"/>
<circle cx="193.925" cy="48" r="3" fill="white"/>
<circle cx="207.925" cy="48" r="3" fill="white"/>
<path d="M212.4 19.3335L207.125 31H192.725L187.7 19.8335L190.5 18.5001L195.925 30.1112H204.325L210 18.0001L212.4 19.3335Z" fill="#29375B" stroke="#29375B"/>
<circle cx="188" cy="17" r="3" fill="#29375B"/>
<circle cx="212" cy="17" r="3" fill="#29375B"/>
<path d="M178.004 39.7496C180.029 42.1512 179.113 43.3493 179.488 43.3921L180.238 43.4775L179.309 51.633L177.059 51.3767C177.059 51.3767 176.684 52.1701 174.605 53.0318C172.527 53.8934 171.418 54.2073 171.092 53.736C170.765 53.2646 172.255 50.1953 173.863 48.6661C175.471 47.1368 176.848 46.5646 176.848 46.5646C177.144 46.2974 176.896 46.136 176.896 46.136C176.896 46.136 174.441 43.5945 173.866 41.3884C173.291 39.1823 173.373 37.0511 173.748 37.0938C173.748 37.0938 175.979 37.348 178.004 39.7496Z" fill="#29375B" stroke="#29375B"/>
<path d="M221.925 52C221.925 57.1797 221.921 60.8744 221.581 63.6042C221.241 66.3245 220.611 67.6489 219.719 68.4445C218.778 69.283 217.17 69.8779 214.024 70.1894C210.912 70.4976 206.718 70.5 200.925 70.5C195.131 70.5 190.937 70.4976 187.825 70.1894C184.68 69.8779 183.071 69.283 182.13 68.4445C181.238 67.6489 180.608 66.3245 180.269 63.6042C179.928 60.8744 179.925 57.1797 179.925 52C179.925 40.402 189.327 31 200.925 31C212.523 31 221.925 40.402 221.925 52Z" stroke="#29375B" stroke-width="4"/>
<path d="M108.16 38.3516H118.285V43.1855H116.123V65H110.287L99.1953 47.7734V60.1836H101.428V65H91.3203V60.1836H93.5176V43.1855H91.3555V38.3516H99.4062L110.428 55.8066V43.1855H108.16V38.3516ZM120.588 46.7891H128.762V60.1836H131.293V65H120.588V60.1836H123.33V51.6055H120.588V46.7891ZM123.049 40.918C123.049 40.4844 123.125 40.0801 123.277 39.7051C123.441 39.3184 123.664 38.9844 123.945 38.7031C124.227 38.4219 124.555 38.1992 124.93 38.0352C125.316 37.8711 125.732 37.7891 126.178 37.7891C126.6 37.7891 126.998 37.8711 127.373 38.0352C127.748 38.1992 128.076 38.4219 128.357 38.7031C128.639 38.9844 128.861 39.3184 129.025 39.7051C129.189 40.0801 129.271 40.4844 129.271 40.918C129.271 41.3516 129.189 41.7617 129.025 42.1484C128.861 42.5234 128.639 42.8516 128.357 43.1328C128.076 43.4141 127.748 43.6367 127.373 43.8008C126.998 43.9648 126.6 44.0469 126.178 44.0469C125.732 44.0469 125.316 43.9648 124.93 43.8008C124.555 43.6367 124.227 43.4141 123.945 43.1328C123.664 42.8516 123.441 42.5234 123.277 42.1484C123.125 41.7617 123.049 41.3516 123.049 40.918ZM149.451 54.5234C149.451 53.5039 149.182 52.707 148.643 52.1328C148.104 51.5469 147.389 51.2539 146.498 51.2539C145.889 51.2539 145.273 51.3887 144.652 51.6582C144.031 51.9277 143.428 52.4316 142.842 53.1699V60.1836H145.795V65H134.475V60.1836H137.146V51.6055H134.51V46.7891H142.807V48.3887C143.568 47.791 144.418 47.3223 145.355 46.9824C146.305 46.6309 147.301 46.4551 148.344 46.4551C150.535 46.4551 152.223 47.0703 153.406 48.3008C154.59 49.5195 155.182 51.3066 155.182 53.6621V60.1836H157.766V65H149.451V54.5234ZM159.629 46.7891H167.627V65.3164C167.627 66.7109 167.451 67.9062 167.1 68.9023C166.76 69.8984 166.256 70.7188 165.588 71.3633C164.932 72.0078 164.117 72.4824 163.145 72.7871C162.172 73.0918 161.059 73.2441 159.805 73.2441L159.734 69.2539C160.578 69.2188 161.205 68.8789 161.615 68.2344C162.025 67.6016 162.23 66.752 162.23 65.6855V51.6055H159.629V46.7891ZM161.932 40.918C161.932 40.4844 162.008 40.0801 162.16 39.7051C162.324 39.3184 162.547 38.9844 162.828 38.7031C163.109 38.4219 163.438 38.1992 163.812 38.0352C164.199 37.8711 164.615 37.7891 165.061 37.7891C165.482 37.7891 165.881 37.8711 166.256 38.0352C166.643 38.1992 166.977 38.4219 167.258 38.7031C167.551 38.9844 167.779 39.3184 167.943 39.7051C168.119 40.0801 168.207 40.4844 168.207 40.918C168.207 41.3516 168.119 41.7617 167.943 42.1484C167.779 42.5234 167.551 42.8516 167.258 43.1328C166.977 43.4141 166.643 43.6367 166.256 43.8008C165.881 43.9648 165.482 44.0469 165.061 44.0469C164.615 44.0469 164.199 43.9648 163.812 43.8008C163.438 43.6367 163.109 43.4141 162.828 43.1328C162.547 42.8516 162.324 42.5234 162.16 42.1484C162.008 41.7617 161.932 41.3516 161.932 40.918Z" fill="#29375B"/>
<path d="M245.545 48.4551C244.889 47.5176 244.297 46.8555 243.77 46.4688C243.242 46.0703 242.674 45.7891 242.064 45.625C241.455 45.4492 240.816 45.3613 240.148 45.3613C239.164 45.3613 238.25 45.584 237.406 46.0293C236.562 46.4629 235.83 47.0605 235.209 47.8223C234.6 48.5723 234.119 49.4512 233.768 50.459C233.416 51.4551 233.24 52.5156 233.24 53.6406C233.24 54.7773 233.41 55.8496 233.75 56.8574C234.102 57.8535 234.582 58.7266 235.191 59.4766C235.801 60.2266 236.527 60.8242 237.371 61.2695C238.215 61.7031 239.141 61.9199 240.148 61.9199C240.852 61.9199 241.508 61.8086 242.117 61.5859C242.727 61.3516 243.277 61.0469 243.77 60.6719C244.273 60.2969 244.713 59.8691 245.088 59.3887C245.463 58.8965 245.756 58.3867 245.967 57.8594L251.627 59.4414C251.264 60.5898 250.73 61.6562 250.027 62.6406C249.324 63.6133 248.475 64.457 247.479 65.1719C246.494 65.8867 245.381 66.4492 244.139 66.8594C242.908 67.2695 241.578 67.4746 240.148 67.4746C238.941 67.4746 237.787 67.3105 236.686 66.9824C235.584 66.6543 234.553 66.1914 233.592 65.5938C232.643 64.9961 231.775 64.2754 230.99 63.4316C230.217 62.5879 229.555 61.6562 229.004 60.6367C228.453 59.6055 228.025 58.5039 227.721 57.332C227.416 56.1484 227.264 54.918 227.264 53.6406C227.264 51.7305 227.598 49.9434 228.266 48.2793C228.934 46.6035 229.848 45.1445 231.008 43.9023C232.168 42.6484 233.527 41.6641 235.086 40.9492C236.656 40.2227 238.344 39.8594 240.148 39.8594C241.59 39.8594 242.803 40.041 243.787 40.4043C244.771 40.7559 245.855 41.459 247.039 42.5137H250.977V48.4551H245.545ZM267.465 67.4746C266.258 67.4746 265.104 67.3105 264.002 66.9824C262.9 66.6543 261.869 66.1914 260.908 65.5938C259.959 64.9961 259.092 64.2812 258.307 63.4492C257.533 62.6055 256.871 61.6738 256.32 60.6543C255.77 59.623 255.342 58.5215 255.037 57.3496C254.732 56.1777 254.58 54.9531 254.58 53.6758C254.58 52.3984 254.732 51.1738 255.037 50.002C255.342 48.8184 255.77 47.7168 256.32 46.6973C256.871 45.666 257.533 44.7344 258.307 43.9023C259.092 43.0586 259.959 42.3379 260.908 41.7402C261.869 41.1426 262.9 40.6797 264.002 40.3516C265.104 40.0234 266.258 39.8594 267.465 39.8594C268.672 39.8594 269.826 40.0234 270.928 40.3516C272.041 40.6797 273.072 41.1426 274.021 41.7402C274.982 42.3379 275.85 43.0586 276.623 43.9023C277.408 44.7344 278.076 45.666 278.627 46.6973C279.189 47.7168 279.623 48.8184 279.928 50.002C280.232 51.1738 280.385 52.3984 280.385 53.6758C280.385 54.9414 280.232 56.166 279.928 57.3496C279.623 58.5215 279.189 59.623 278.627 60.6543C278.076 61.6738 277.408 62.6055 276.623 63.4492C275.85 64.2812 274.982 64.9961 274.021 65.5938C273.072 66.1914 272.041 66.6543 270.928 66.9824C269.826 67.3105 268.672 67.4746 267.465 67.4746ZM267.465 61.9551C268.484 61.9551 269.416 61.7383 270.26 61.3047C271.115 60.8594 271.848 60.2617 272.457 59.5117C273.066 58.75 273.535 57.8711 273.863 56.875C274.203 55.8672 274.373 54.8008 274.373 53.6758C274.373 52.5391 274.203 51.4668 273.863 50.459C273.523 49.4512 273.043 48.5723 272.422 47.8223C271.812 47.0605 271.086 46.4629 270.242 46.0293C269.398 45.584 268.473 45.3613 267.465 45.3613C266.457 45.3613 265.531 45.584 264.688 46.0293C263.844 46.4629 263.117 47.0605 262.508 47.8223C261.898 48.5723 261.418 49.4512 261.066 50.459C260.727 51.4668 260.557 52.5391 260.557 53.6758C260.557 54.8008 260.727 55.8672 261.066 56.875C261.418 57.8711 261.898 58.75 262.508 59.5117C263.117 60.2617 263.844 60.8594 264.688 61.3047C265.531 61.7383 266.457 61.9551 267.465 61.9551Z" fill="#29375B"/>
<path d="M1224 52H1327.47V134.774H1224V52Z" fill="#A7BFDC"/>
<path d="M1232.24 70.6851H1248.8V93.6207H1232.24V70.6851Z" fill="#6480A7"/>
<path d="M1318.01 126.388H1267.26V71.7446H1318.01V100.659V126.388Z" fill="#465B81"/>
<path d="M1226.19 62.0451H1325.66M1257.63 133.464V62.0451M1224 52H1327.47V134.774H1224V52Z" stroke="#192137" stroke-width="2" stroke-miterlimit="10" stroke-linecap="round" stroke-linejoin="round"/>
<path d="M1318.01 126.388H1267.26M1318.01 126.388V100.659V71.7446M1318.01 126.388L1267.26 71.7446M1267.26 126.388V71.7446M1267.26 126.388L1318.01 71.7446M1267.26 71.7446H1318.01M1232.06 107.505H1242.61M1232.06 115.782H1249.25M1232.06 124.06H1242.61M1232.24 70.6851H1248.8V93.6207H1232.24V70.6851Z" stroke="#192137" stroke-width="2" stroke-miterlimit="10" stroke-linecap="round" stroke-linejoin="round"/>
</svg>
